<?xml version="1.0" encoding="UTF-8"?>
<svg viewBox="0 0 238 283.17" xmlns="http://www.w3.org/2000/svg">
 <path d="m222.94 161.2c0.016876 60.508-45.938 109.57-102.63 109.57-56.694 0-102.65-49.062-102.63-109.57-0.016865-60.508 45.938-109.57 102.63-109.57 56.694 0 102.65 49.062 102.63 109.57z" fill="#b2b2b2" stroke="#010101" stroke-linecap="round" stroke-linejoin="round" stroke-width="3.287"/>
 <path d="m216.73 123.63c0.071198 1.682 0.11711 3.393 0.11711 5.094 0 60.464-45.975 109.53-102.63 109.53-44.283 0-82.07-30-96.449-71.969 2.4858 58.111 47.48 104.47 102.54 104.47 56.651 0 102.63-49.067 102.63-109.53 0-13.202-2.1906-25.87-6.2074-37.594z" fill="#010101" fill-opacity=".314"/>
 <g stroke="#010101" stroke-linejoin="round" stroke-width="4">
  <path d="m112.81 271.78c0 9.091-14.665 9.381-32.734 9.381-18.07 0-32.736 0.69302-32.736-9.381 0-17.716 14.666-32.095 32.736-32.095 18.069 0 32.734 14.379 32.734 32.095z" fill="#343434" stroke-linecap="round"/>
  <path d="m67.483 280.56c0-16.368 9.442-26.44 9.442-26.44s-3.777 13.85-3.147 26.44h-6.295z" fill="#010101" fill-opacity=".314"/>
  <path d="m127.81 271.78c0 9.091 14.666 9.381 32.735 9.381s32.735 0.69302 32.735-9.381c0-17.716-14.666-32.095-32.735-32.095s-32.735 14.379-32.735 32.095z" fill="#343434" stroke-linecap="round"/>
  <path d="m173.13 280.56c0-16.368-9.443-26.44-9.443-26.44s3.777 13.85 3.147 26.44h6.296z" fill="#010101" fill-opacity=".314"/>
 </g>
 <path d="m112.94 49.097c0.729 0.091999 1.46 0.22 2.203 0.33 19.911 2.985 34.102 11.633 43.385 23.958l12.053-16.931c-0.082001-0.002003-0.16301-0.014-0.24701-0.015003-8.23-19.026-24.54-32.751-50.741-36.681-0.742-0.112-1.476-0.239-2.204-0.331-10.559-1.321-20.015-0.606-28.408 1.799l-4.448 29.667c8.391-2.404 17.849-3.119 28.407-1.796z" fill="#696969" stroke="#010101" stroke-linecap="round" stroke-linejoin="round" stroke-width="4"/>
 <g fill="#010101" fill-opacity=".314">
  <path d="m204.72 125.92c0 45.175-55.121 81.838-81.838 81.838-25.719 0-81.838-36.663-81.838-81.838 0-45.174 24.625-81.838 81.838-81.838 57.223 0 81.838 36.665 81.838 81.838z"/>
  <path d="m198.64 85.911l-1.875 2.656c0.248 3.076 0.34399 6.203 0.34399 9.375 0 45.175-55.127 81.844-81.844 81.844-20.707 0-61.098-23.756-76.063-56.594 7.615 40.246 57.172 71.375 80.875 71.375 26.717 0 81.844-36.669 81.844-81.844 0-9.391-1.076-18.41-3.281-26.812z"/>
 </g>
 <path d="m235.03 4.202c-5.021-6.518-64.881 6.3595-73.391 39.346-0.078003 0.154-0.215 0.618-0.369 1.315-0.046997 0.214-0.095993 0.447-0.146 0.705-1.925-1.174-3.908-2.261-5.935-3.272-9.979-3.714-21.665-5.762-35.173-5.762-0.895 0-1.779-0.017998-2.656 0-12.873 0.261-24.037 2.432-33.6 6.159-2.307 1.185-4.552 2.471-6.723 3.866-0.044998-0.282-0.090996-0.543-0.13599-0.794-0.216-1.183-0.43301-2.007-0.537-2.216-6.647-25.772-44.629-41.52-63.329-41.526-5.237-1e-3 -8.962 0.753-10.06 2.179-4.002 5.193 4.251 46.94 26.575 61.389 4.198 2.717 8.894 4.473 14.101 4.833 2.119 0.146 4.11 0.156 5.98 0.119-5.838 11.05-9.148 23.634-9.148 36.993 0 13.517-2.5848 20.609 9.349 40.84s51.79 45.975 70.186 45.975c18.565 0 56.478-23.745 68.815-43.672s10.433-28.833 10.433-43.143c0-13.346-3.322-25.91-9.148-36.953 1.345-0.012001 2.771-0.056999 4.237-0.158 5.595-0.388 10.6-2.384 15.031-5.457 21.621-14.989 29.589-55.646 25.644-60.766z" fill="#b2b2b2" stroke="#010101" stroke-linecap="round" stroke-linejoin="round" stroke-width="4"/>
 <path d="m119.63 28.536c-35.869 0-66.33 24.378-77.402 58.299-1.3 5.692-1.994 11.615-1.994 17.701 0 1.284 0.039997 2.575 0.101 3.87 9.091-37.305 23.394-68.276 78.566-68.276s70.913 30.952 80.016 68.239c0.05899-1.282 0.099991-2.561 0.099991-3.833 0-6.169-0.718-12.168-2.057-17.93-11.135-33.802-41.542-58.07-77.33-58.07z"/>
 <path d="m121 152.36c-24.824 0-44.953 16.517-44.953 36.868 0 3.7743 0.70362 7.4274 1.9921 10.858 15.886 9.677 31.738 15.271 42.961 15.271 11.495 0 27.19-5.4128 42.845-14.841 1.391-3.5531 2.1484-7.3574 2.1484-11.287 0-20.354-20.17-36.87-44.993-36.87z" fill="#d2691e" stroke="#010101" stroke-linecap="round" stroke-linejoin="round" stroke-width="4.999"/>
 <g fill="#010101">
  <path d="m105.6 179c2.293 3.974 6.5 5.839 9.396 4.167 2.897-1.673 3.385-6.249 1.091-10.222-2.292-3.973-6.5-5.838-9.396-4.166s-3.385 6.249-1.091 10.221z"/>
  <path d="m138.34 179c-2.292 3.974-6.5 5.839-9.396 4.167-2.896-1.673-3.385-6.249-1.091-10.222 2.293-3.973 6.5-5.838 9.396-4.166 2.898 1.672 3.385 6.249 1.091 10.221z"/>
 </g>
 <path d="m168.03 100.74c0.003006 12.519-10.144 22.669-22.663 22.669s-22.666-10.15-22.662-22.669c-0.003998-12.52 10.144-22.67 22.662-22.67 12.519 0 22.666 10.15 22.663 22.67z" fill="#fff" stroke="#010101" stroke-linecap="round" stroke-linejoin="round" stroke-width="4"/>
 <path d="m147.88 104.74c0.001999 4.174-3.381 7.557-7.555 7.557-4.172 0-7.555-3.383-7.554-7.557-0.001007-4.173 3.382-7.556 7.554-7.556 4.174 0 7.557 3.383 7.555 7.556z" fill="#010101"/>
 <path d="m115.3 100.74c0.004005 12.519-10.144 22.669-22.662 22.669-12.52 0-22.667-10.15-22.663-22.669-0.003998-12.52 10.144-22.67 22.663-22.67 12.518 0 22.666 10.15 22.662 22.67z" fill="#fff" stroke="#010101" stroke-linecap="round" stroke-linejoin="round" stroke-width="4"/>
 <path d="m105.85 104.74c0 4.174-3.382 7.557-7.555 7.557-4.174 0-7.556-3.383-7.555-7.557-0.001007-4.173 3.381-7.556 7.555-7.556 4.173 0 7.555 3.383 7.555 7.556z" fill="#010101"/>
 <g fill="#010101" stroke="#010101" stroke-linejoin="round" stroke-width="4">
  <path d="m62.431 54.958c-2.512-36.234-40.308-35.484-42.102-31.179s7.3035 43.735 42.102 31.179z"/>
  <path d="m177.39 55.08c2.511-36.234 37.268-36.092 39.061-31.787 1.794 4.305-4.2617 44.343-39.061 31.787z"/>
 </g>
</svg>
