<?xml version="1.0" encoding="UTF-8"?>
<svg viewBox="0 0 640 480" xmlns="http://www.w3.org/2000/svg">
 <defs>
  <linearGradient id="c" x1=".43534" x2=".63257" y1=".50018" y2=".50018" gradientTransform="matrix(.6415 0 0 -.7781 -31.166 4.888)" gradientUnits="userSpaceOnUse">
   <stop stop-color="#fbb045" offset="0"/>
   <stop stop-color="#c77829" offset="1"/>
  </linearGradient>
  <radialGradient id="d" cx="414.68" cy="-8.8805" r="123.55" gradientTransform="matrix(-5.8291e-6 .89419 -1.9479 1.1251e-8 598.73 580.58)" gradientUnits="userSpaceOnUse">
   <stop stop-color="#ffb142" offset="0"/>
   <stop stop-color="#ffb141" offset=".88679"/>
   <stop stop-color="#c87600" offset="1"/>
  </radialGradient>
 </defs>
 <g fill="#fff" stroke="#010101" stroke-width="4">
  <path d="m273.18 265.09c-52.248 19.78 15.382 107.64-41.07 184.3-10.434 14.171 62.844 2.3909 88.751-76.131 25.193-76.361 1.2294-122.96-47.681-108.17z"/>
  <path d="m273.18 265.09c-52.248 19.78 15.382 107.64-41.07 184.3-10.434 14.171 62.844 2.3909 88.751-76.131 25.193-76.361 1.2294-122.96-47.681-108.17z"/>
 </g>
 <path d="m290.29 262.36c-0.44742 0-0.9036 0.024017-1.3575 0.035461 17.606 14.937 25.057 49.504 16.052 97.58-11.971 63.908-58.184 91.479-73.543 92.934 4.9869 7.4617 66.215-9.2911 89.426-79.643 22.045-66.815 6.4302-110.85-30.578-110.91z" fill="#010101" fill-opacity=".314"/>
 <path d="m103.28 265.09c52.249 19.78-15.381 107.64 41.072 184.3 10.434 14.171-62.845 2.3909-88.751-76.131-25.192-76.361-1.2283-122.96 47.68-108.17z" fill="#fff" stroke="#010101" stroke-width="4"/>
 <path d="m47.166 299.17c-3.7478 18.872-1.4107 44.217 8.4502 74.105 25.907 78.522 99.181 90.31 88.747 76.142-4.4624-6.0599-8.1678-12.204-11.2-18.366-20.581-5.1921-58.696-27.871-75.918-80.071-6.3835-19.355-9.6144-36.795-10.079-51.81zm77.411 7.2523c-0.95895 9.76-2.0145 20.136-2.4772 31.014 1.0784-11.195 2.2589-21.657 2.4772-31.014z" fill="#010101" fill-opacity=".314"/>
 <g fill-rule="evenodd">
  <path d="m149.91 426.03c-52.219 5.6595-112.11 50.146-88.306 59.848 23.806 9.7017 92.898 13.748 105.95 2.4297 6.7082-5.8164 18.71-20.383 20.125-34.051 1.4164 13.667 13.384 28.235 20.091 34.051 13.055 11.319 82.181 7.2721 105.99-2.4297 23.806-9.702-36.087-54.189-88.305-59.848-26.889 2.7285-36.561 12.241-37.773 23.153-1.2116-10.913-10.883-20.425-37.772-23.153z" fill="url(#d)" stroke="#000" stroke-width="5"/>
  <path d="m149.92 426.05c-25.63 2.7779-53.085 14.91-71.608 27.691 28.054 13.66 62.356 22.078 99.539 23.046 4.7645-6.5998 9.0328-14.692 9.8419-22.51 0.80258 7.7444 4.9707 15.765 9.6721 22.332 36.572-1.6303 70.163-10.457 97.503-24.368-18.457-12.224-44.768-23.52-69.402-26.19-26.889 2.7288-36.561 12.241-37.772 23.153-1.2118-10.912-10.883-20.424-37.773-23.153z" fill-opacity=".314"/>
 </g>
 <path d="m307.19 345.85c0.019562 69.183-53.246 125.28-118.96 125.28-65.712 0-118.98-56.096-118.96-125.28-0.02066-69.183 53.244-125.28 118.96-125.28 65.712-0.001282 118.98 56.095 118.96 125.28z" fill="#fff" stroke="#010101" stroke-linecap="round" stroke-linejoin="round" stroke-width="4"/>
 <path d="m300 302.89c0.08252 1.9232 0.13574 3.8818 0.13574 5.8243 0 69.134-53.287 125.24-118.95 125.24-51.328 0-95.125-34.301-111.79-82.288 2.8812 66.445 55.032 119.45 118.85 119.45 65.663 0 118.95-56.102 118.95-125.24 0-15.095-2.5391-29.579-7.1948-42.984z" fill="#010101" fill-opacity=".314"/>
 <g stroke-linejoin="round">
  <g stroke="#010101">
   <g stroke-linecap="round" stroke-width="4">
    <path d="m218.44 196.25l-65.941 1.5576s1.6158 13.988-2.0702 29.282c-5.6921 1.7511-11.188 3.9002-16.46 6.386 18.426 14.126 39.901 22.803 53.52 22.803 14.256 0 35.943-8.8273 54.334-23.146-6.0893-2.8253-12.472-5.1994-19.107-7.0402-4.809-15.549-4.2761-29.843-4.2761-29.843z" fill="#010101" opacity=".32"/>
    <path d="m132.97 260.49c26.926-20.384 19.514-67.036 19.514-67.036l63.854-3.9548s-1.6485 49.201 25.827 69.936" fill="#fff"/>
   </g>
   <g display="none" fill="#fff" stroke-width="5">
    <path d="m2677.5 1416.1c33.683-85.908 90.49-97.538 90.49-97.538s-31.594 44.814-2.9792 32.347c44.312-19.307 185.21 41.185 185.21 41.185s-186.68-45.741-272.72 24.007z"/>
    <path d="m2600.2 1408.1c-33.683-85.908-90.491-97.538-90.491-97.538s31.6 44.808 2.9746 32.347c-44.312-19.302-185.21 41.184-185.21 41.184s186.68-45.746 272.72 24.007z"/>
   </g>
  </g>
  <g display="none" fill="none" stroke="#000" stroke-linecap="round" stroke-width=".835">
   <rect x="6.3579" y="-236.68" width="64.218" height="67.267"/>
   <rect x="83.022" y="-236.68" width="64.218" height="67.267"/>
   <rect x="6.3579" y="-153.16" width="64.218" height="67.267"/>
   <rect x="83.022" y="-153.16" width="64.218" height="67.267"/>
   <rect x="162.75" y="-190.1" width="64.218" height="67.267"/>
   <rect x="242.48" y="-190.1" width="64.218" height="67.267"/>
  </g>
 </g>
 <g stroke="#010101">
  <path d="m236.71 27.124c-14.138-10.472-32.083-16.615-53.158-16.615-19.177 0-35.535 4.7999-48.804 13.137-15.178 11.045-27.367 27.091-34.844 46.149-3.4448 10.622-5.2335 22.185-5.2335 34.292 0 51.652 60.952 93.578 88.883 93.578 29.015 0 88.882-41.926 88.882-93.578 0-12.476-1.9885-24.377-5.7591-35.263-6.7397-16.725-17.121-31.084-29.966-41.7v8e-6z" fill="#fff" stroke-linecap="round" stroke-linejoin="round" stroke-width="4"/>
  <path d="m187.76 112.56c-12.113 0-25.281 13.362-24.753 21.798 7.2737 29.879-23.508 43.597 26.335 43.597 49.842 0 13.542-26.94 22.648-44.301-0.52534-9.8427-16.324-21.796-24.229-21.094z" fill="#010101" opacity=".32" stroke-width="6.091"/>
 </g>
 <path d="m160.44 43.872c-17.103 0-30.993 16.908-30.993 37.741s13.89 37.741 30.993 37.741c10.05 0 18.968-5.845 24.63-14.889 5.6613 9.051 14.599 14.889 24.654 14.889 17.101 0 30.992-16.908 30.992-37.741 0-20.834-13.891-37.741-30.992-37.741-10.054 0-18.993 5.8404-24.654 14.89-5.6614-9.0417-14.582-14.89-24.63-14.89z" fill="#fff" stroke="#010101" stroke-linecap="round" stroke-width="5"/>
 <path d="m183.11 84.168c0 5.2172-4.0171 9.4454-8.9715 9.4454-4.9554 0-8.9725-4.2293-8.9725-9.4454 0-5.2172 4.0171-9.4465 8.9725-9.4465 4.9544 0 8.9715 4.2293 8.9715 9.4465z" fill="#010101" stroke="#010101" stroke-linecap="round" stroke-width="3.169"/>
 <path d="m173.23 80.859c0 1.3536-1.0404 2.45-2.3262 2.45s-2.3273-1.0965-2.3273-2.45c0-1.3538 1.0415-2.4516 2.3273-2.4516s2.3262 1.0988 2.3262 2.4516z" fill="#fff"/>
 <path d="m205.83 84.168c0 5.2172-4.0171 9.4454-8.9715 9.4454-4.9554 0-8.9726-4.2293-8.9726-9.4454 0-5.2172 4.0171-9.4465 8.9726-9.4465 4.9544 0 8.9715 4.2293 8.9715 9.4465z" fill="#010101" stroke="#010101" stroke-linecap="round" stroke-width="3.169"/>
 <path d="m195.95 80.859c0 1.3536-1.0415 2.45-2.3273 2.45-1.2859 0-2.3273-1.0965-2.3273-2.45 0-1.3538 1.0414-2.4516 2.3273-2.4516 1.2847 0.001244 2.3273 1.0988 2.3273 2.4516z" fill="#fff"/>
 <g fill="#8a916f" fill-rule="evenodd" stroke="#000" stroke-linejoin="round" stroke-width="3.781">
  <path d="m192.63 48.336c7.9192-38.279 21.275-43.46 21.275-43.46s-7.4285 19.967-0.70023 14.413c10.418-8.6007 43.543 18.352 43.543 18.352s-43.887-20.384-64.117 10.696z"/>
  <path d="m174.47 48.336c-7.9191-38.279-21.275-43.46-21.275-43.46s7.4285 19.967 0.70029 14.413c-10.418-8.6008-43.543 18.352-43.543 18.352s43.887-20.384 64.117 10.696z"/>
 </g>
 <g stroke="#010101">
  <path d="m211.96 195.67l-53.123 2.7486s0.04277 1.127 0.10938 3.2435c0.034119 0.99429 0.049927 1.7285 0.08197 3.2435 0.005569 0.24182 0.022614 0.40588 0.027344 0.65959 0.013779 0.71684 0.01712 1.2782 0.027267 2.089 0.003677 0.23524-0.002777 0.47166 0 0.71458 0.013794 1.2428 0.026871 2.5278 0.027298 3.9583 3.66e-4 1.0993-0.016953 2.2089-0.027298 3.4082-0.003708 0.36623 0.004654 0.66975 0 1.0448-0.00737 0.60889-0.017105 1.2381-0.027267 1.8691-0.024185 1.5035-0.063614 2.9454-0.10938 4.5629-0.0065 0.21074 0.006454 0.39209 0 0.60461 0.50886 6.8834 0.13135 10.784-1.6234 26.278-0.91707 8.3351-2.3843 16.902-4.2821 25.013 12.382 16.686 25.423 33.886 34.201 33.886 9.001 0 21.464-15.24 33.659-31.543-2.4371-8.819-5.2563-21.333-6.5513-30.505-2.1429-12.592-1.1672-17.579-1.7329-27.307-0.16461-2.8455-0.28943-5.4646-0.3828-7.9164-0.09259-2.4302-0.14996-4.6446-0.19134-6.597-0.042343-1.9896-0.073364-3.7138-0.082077-5.1123-0.016678-2.6781 0-4.343 0-4.343h-1.53e-4z" fill="#010101" opacity=".32" stroke-linecap="round" stroke-linejoin="round" stroke-width="3.796"/>
  <path d="m184.93 97.978c-19.971 0-41.682 22.962-40.812 37.459 11.992 51.346-38.758 74.92 43.419 74.92 82.176 0 22.327-46.296 37.341-76.129-0.86621-16.915-26.915-37.456-39.948-36.25z" fill="url(#c)" stroke-width="4"/>
 </g>
</svg>
