<?xml version="1.0" encoding="UTF-8"?>
<svg viewBox="0 0 250 300" xmlns="http://www.w3.org/2000/svg" xmlns:xlink="http://www.w3.org/1999/xlink">
 <g transform="matrix(.89043 0 0 .93074 500.35 38.324)">
  <path d="m-304.78 60.334c-2.748-0.06065-5.5271 0.53777-8.063 1.8757-1.1761 0.62203-1.6104 2.0526-0.97012 3.1952s2.1127 1.5646 3.2887 0.9424c5.668-2.9905 13.162-0.80949 16.107 5.3422 2.6248 5.4822 0.70994 12.698-4.5236 16.928-0.04266-1.8099-0.26146-3.6056-0.81386-5.333-2.7718-8.6671-11.439-12.997-18.331-10.289-7.1498 2.809-9.0305 11.917-3.899 18.058 0.2808 0.33606 0.58143 0.65733 0.88958 0.96545-2.4802-1.0445-5.1754-1.2605-7.656-0.35859-3.1152 1.1326-5.1548 3.8008-5.6308 6.7398-0.46888 2.8951 0.53715 6.0695 2.9905 8.5235-2.3839-0.99607-5.0294-1.1365-7.4194-0.11953-5.4978 2.3393-6.7418 9.6329-2.3943 14.252 2.2532 2.394 5.4645 3.7237 8.9525 3.9446-0.53252 0.50119-1.1009 0.97084-1.7602 1.3424-3.685 2.0768-8.1794 1.1309-10.069-1.3608-0.50968-0.68795-1.3607-1.0566-2.228-0.96506s-1.6171 0.629-1.9629 1.4072-0.23433 1.677 0.29189 2.3531c3.5771 4.7163 10.733 5.8239 16.4 2.6297 2.6954-1.5191 4.6606-3.7773 5.8863-6.326 1.4928-0.49743 2.9701-1.1455 4.3627-2.0596 4.5655-2.9968 7.4698-7.649 8.432-12.542 1.4772-0.59705 2.9307-1.3128 4.3154-2.2711 4.4835-3.1031 7.4964-7.6231 8.8579-12.468 0.62095-0.30204 1.2361-0.62323 1.8359-0.99303 8.4299-5.1973 11.865-15.687 7.8642-24.044-2.8148-5.8792-8.7081-9.236-14.754-9.3695zm-8.309 16.633c3.3936 0.33063 7.1546 2.862 8.7065 7.7144 0.65972 2.0629 0.74815 4.3448 0.40693 6.6294-5.4965 1.7311-11.34 0.26704-14.252-3.2182-3.3789-4.0438-2.1411-9.1194 1.959-10.73 0.95426-0.37491 2.0486-0.50558 3.1798-0.39537zm-3.6718 18.077c3.3167 1.5901 7.2325 2.0975 11.148 1.4896-1.2994 2.6545-3.231 5.0751-5.7822 6.8409-0.40116 0.27765-0.81947 0.48236-1.2303 0.71719-0.10188-0.95361-0.2851-1.89-0.54888-2.8136-0.71599-2.5071-2.0062-4.584-3.5867-6.234zm-9.1607 0.78155c2.8121-0.23583 6.691 1.8327 8.0819 6.703 0.30642 1.073 0.40945 2.2257 0.39747 3.3929-4.2462 0.85367-8.2833-0.1178-10.429-2.2067-1.5268-1.4866-1.9606-3.1667-1.7318-4.579s1.0622-2.5283 2.5552-3.071c0.34783-0.12646 0.72444-0.20537 1.1262-0.23906zm-1.7697 13.636c2.7442 1.3127 5.972 1.8213 9.3216 1.4436-1.0691 2.8337-3 5.4507-5.6781 7.2087l-0.24607 0.13793c0.02-1.4307-0.15443-2.8654-0.60565-4.2388-0.59336-1.806-1.5919-3.3139-2.7918-4.5514zm-7.2586 1.3608c2.0762 0.14259 4.4427 1.6136 5.4321 4.625 0.47489 1.4455 0.48706 3.0801 0.1041 4.6709-3.3843 0.46685-6.5423-0.46707-8.2144-2.2435-2.4553-2.6087-1.651-5.7295 0.76654-6.7582 0.56694-0.24123 1.2196-0.34177 1.9116-0.29423z" fill="#faa" stroke="#000" stroke-width="1.791"/>
  <path d="m-328.24 131.26c0.01803 60.508-49.029 109.57-109.54 109.57s-109.55-49.061-109.54-109.57c-0.01804-60.508 49.029-109.57 109.54-109.57s109.55 49.061 109.54 109.57z" fill="#faa" stroke="#000" stroke-linecap="round" stroke-linejoin="round" stroke-width="4"/>
  <path d="m-334.86 93.677c0.07679 1.6816 0.125 3.3933 0.125 5.0938 0 60.464-49.067 109.53-109.53 109.53-47.262 0-87.591-29.999-102.94-71.969 2.6535 58.112 50.674 104.47 109.44 104.47 60.464 0 109.53-49.067 109.53-109.53 0-13.202-2.3382-25.87-6.625-37.594z" fill-opacity=".31373"/>
  <path d="m-429.59 241.83c0 9.0908 14.665 9.3814 32.735 9.3814s32.735 0.69349 32.735-9.3814c0-17.716-14.665-32.094-32.735-32.094s-32.735 14.378-32.735 32.094z" fill="#412424" stroke="#000" stroke-linecap="round" stroke-linejoin="round" stroke-width="4"/>
  <path d="m-384.27 250.61c0-16.368-9.4428-26.44-9.4428-26.44s3.7771 13.849 3.1476 26.44h6.2952z" fill-opacity=".31373" fill-rule="evenodd" stroke="#000" stroke-linejoin="round" stroke-width="4"/>
  <path d="m-444.59 241.83c0 9.0908-14.665 9.3814-32.735 9.3814s-32.735 0.69349-32.735-9.3814c0-17.716 14.665-32.094 32.735-32.094s32.735 14.378 32.735 32.094z" fill="#412424" stroke="#000" stroke-linecap="round" stroke-linejoin="round" stroke-width="4"/>
  <path d="m-489.92 250.61c0-16.368 9.4428-26.44 9.4428-26.44s-3.7771 13.849-3.1476 26.44h-6.2952z" fill-opacity=".31373" fill-rule="evenodd" stroke="#000" stroke-linejoin="round" stroke-width="4"/>
  <g transform="matrix(-1 0 0 1 -875.44 0)" stroke="#000" stroke-linecap="round" stroke-linejoin="round">
   <path d="m-411.77 11.248c-7.0376 6.405 0.52886 16.456 10.129 28.588s16.855 22.467 24.654 15.368c13.715-12.482 33.097-47.059 23.497-59.191s-44.565 2.7532-58.28 15.235z" fill="#faa" stroke-width="3.7822"/>
   <path d="m-385.22 9.4402c5.4514-3.9876 19.603-6.9172 27.894-8.2992" fill="none" stroke-width="3.5"/>
  </g>
  <path d="m-411.77 11.248c-7.0376 6.405 0.52886 16.456 10.129 28.588s16.855 22.467 24.654 15.368c13.715-12.482 33.097-47.059 23.497-59.191s-44.565 2.7532-58.28 15.235z" fill="#faa" stroke="#000" stroke-linecap="round" stroke-linejoin="round" stroke-width="3.7822"/>
  <path d="m-385.22 9.4402c5.4514-3.9876 19.603-6.9172 27.894-8.2992" fill="none" stroke="#000" stroke-linecap="round" stroke-linejoin="round" stroke-width="3.5"/>
  <path d="m-354.4 76.488c0.01372 45.653-37.319 82.669-83.376 82.669s-83.39-37.016-83.376-82.669c-0.01372-45.653 37.319-82.669 83.376-82.669s83.39 37.016 83.376 82.669z" fill="#faa" stroke="#000" stroke-linecap="round" stroke-linejoin="round" stroke-width="3.0313"/>
  <path d="m-402.31 115.51c0.00583 15.517-15.875 28.099-35.467 28.099s-35.473-12.582-35.467-28.099c-0.00585-15.517 15.875-28.099 35.467-28.099s35.473 12.582 35.467 28.099z" fill="#faa" stroke="#000" stroke-linecap="round" stroke-linejoin="round" stroke-width="2.7"/>
  <g transform="matrix(1.387 0 0 1.387 -586.34 -23.02)">
   <path d="m142.82 56.167c0.00253 8.4803-6.8714 15.356-15.352 15.356s-15.354-6.876-15.352-15.356 6.8714-15.356 15.352-15.356 15.354 6.876 15.352 15.356z" fill="#fff" stroke="#000" stroke-linecap="round" stroke-linejoin="round" stroke-width="2.7096"/>
   <path d="m129.17 58.876c8.4e-4 2.8268-2.2905 5.1188-5.1172 5.1188s-5.1181-2.292-5.1172-5.1188 2.2905-5.1187 5.1172-5.1187 5.1181 2.292 5.1172 5.1187z"/>
  </g>
  <g transform="matrix(1.387 0 0 1.387 -594.99 -23.02)">
   <path d="m107.1 56.167c0.00252 8.4803-6.8714 15.356-15.352 15.356s-15.354-6.876-15.352-15.356 6.8714-15.356 15.352-15.356 15.354 6.876 15.352 15.356z" fill="#fff" stroke="#000" stroke-linecap="round" stroke-linejoin="round" stroke-width="2.7096"/>
   <path d="m100.7 58.876c8.4e-4 2.8268-2.2905 5.1188-5.1172 5.1188s-5.1181-2.292-5.1172-5.1188 2.2905-5.1187 5.1172-5.1187 5.1181 2.292 5.1172 5.1187z"/>
  </g>
  <path d="m-359 50.265-1.9756 2.8214c0.26223 3.2667 0.3622 6.5883 0.3622 9.958 0 47.984-50.993 87.807-86.234 82.586-29.345-4.3472-56.973-15.705-72.741-50.585 8.0243 42.749 52.839 69.25 77.812 69.002 55.367-0.5434 86.234-37.319 86.234-85.303 0-9.9755-1.1331-19.555-3.4573-28.48z" fill-opacity=".31373"/>
  <path d="m-415.18 113.97c0.00117 3.9208-3.1769 7.0999-7.0977 7.0999s-7.0989-3.1791-7.0977-7.0999 3.1769-7.0998 7.0977-7.0998 7.0989 3.179 7.0977 7.0998z"/>
  <path d="m-447.31 113.97c0.00117 3.9208-3.1769 7.0999-7.0977 7.0999s-7.0989-3.1791-7.0977-7.0999 3.1769-7.0998 7.0977-7.0998 7.0989 3.179 7.0977 7.0998z"/>
 </g>
</svg>
