<?xml version="1.0" encoding="UTF-8"?>
<svg viewBox="0 0 244.0735 254.0336" xmlns="http://www.w3.org/2000/svg">
 <g transform="translate(-229.24 -428.63)">
  <path d="m471.31 550.71c0.01976 66.308-53.728 120.07-120.04 120.07s-120.06-53.764-120.04-120.07c-0.01976-66.308 53.728-120.07 120.04-120.07s120.06 53.764 120.04 120.07z" fill="#fff" stroke="#000" stroke-linecap="round" stroke-linejoin="round" stroke-width="4"/>
  <path transform="translate(239.74 384.07)" d="m111.69 107.53c-55.318 1.1211-79.188 37.344-79.188 81.812 0 19.851 10.824 38.075 25.156 52.25-30.524-12.934-54.598-38.139-66.031-69.406 2.9079 63.683 55.509 114.5 119.91 114.5 66.26 1e-5 120.03-53.771 120.03-120.03 0-14.468-2.5522-28.34-7.25-41.188 0.08415 1.8428 0.15625 3.699 0.15625 5.5625 0 32.537-12.988 62.062-34.031 83.688 3.6058-7.988 5.75-16.521 5.75-25.375 0-45.174-24.621-81.812-81.844-81.812-0.89395 0-1.7782-0.01779-2.6562 0z" fill-opacity=".31373"/>
  <path d="m359.45 671.28c0 9.0908 14.665 9.3814 32.735 9.3814s32.735 0.69349 32.735-9.3814c0-17.716-14.665-32.094-32.735-32.094s-32.735 14.378-32.735 32.094z" fill="#333" stroke="#000" stroke-linecap="round" stroke-linejoin="round" stroke-width="4"/>
  <path d="m344.46 671.28c0 9.0908-14.665 9.3814-32.735 9.3814s-32.735 0.69349-32.735-9.3814c0-17.716 14.665-32.094 32.735-32.094s32.735 14.378 32.735 32.094z" fill="#333" stroke="#000" stroke-linecap="round" stroke-linejoin="round" stroke-width="4"/>
  <path d="m299.13 680.06c0-16.368 9.4428-26.44 9.4428-26.44s-3.7771 13.849-3.1476 26.44h-6.2952z" fill-opacity=".31373" fill-rule="evenodd" stroke="#000" stroke-linejoin="round" stroke-width="4"/>
  <path d="m353.05 623.66c-46.403-3.3499-78.501 11.437-78.501 11.437s10.241-0.24759 16.017 0.6714c-10.831 7.4126-14.382 22.123-14.382 22.123s12.078-12.944 24.46-17.549c-10.513 13.981-11.913 36.96-11.913 36.96s12.09-35.725 34.679-43.124c17.221-5.6404 35.434-2.3231 35.434-2.3231s36.116-2.4911 48.491 19.076c1.6292 0.77175 1.4682-13.098-8.7848-18.047l27.631-1.4305c-20.153-8.4853-73.132-7.7944-73.132-7.7944z" fill="#4a0" fill-rule="evenodd" stroke="#000" stroke-linejoin="round" stroke-width="4"/>
  <path d="m348.61 478.41c-30.129 0.61059-50.932 11.653-63.625 28.75-24.064-2.5878-44.062 23.625-44.062 23.625s18.891 9.4463 32.062 1.5312c-2.3992 8.7117-3.5625 18.106-3.5625 27.906 0 45.174 56.126 81.844 81.844 81.844 26.717 0 81.844-36.669 81.844-81.844 0-9.8003-1.1639-19.195-3.5625-27.906 13.171 7.9151 32.031-1.5312 32.031-1.5312s-19.971-26.205-44.031-23.625c-13.062-17.595-34.708-28.75-66.281-28.75-0.89395 0-1.7782-0.01779-2.6562 0z" fill="#333" stroke="#000" stroke-linecap="round" stroke-linejoin="round" stroke-width="4"/>
  <path d="m404.78 680.06c0-16.368-9.4428-26.44-9.4428-26.44s3.7771 13.849 3.1476 26.44h6.2952z" fill-opacity=".31373" fill-rule="evenodd" stroke="#000" stroke-linejoin="round" stroke-width="4"/>
  <path d="m347.64 548.24c0.00373 12.519-10.144 22.67-22.663 22.67s-22.667-10.151-22.663-22.67 10.144-22.67 22.663-22.67 22.666 10.151 22.663 22.67z" fill="#fff" stroke="#000" stroke-linecap="round" stroke-linejoin="round" stroke-width="4"/>
  <path d="m400.38 548.24c0.00373 12.519-10.144 22.67-22.663 22.67s-22.667-10.151-22.663-22.67 10.144-22.67 22.663-22.67 22.666 10.151 22.663 22.67z" fill="#fff" stroke="#000" stroke-linecap="round" stroke-linejoin="round" stroke-width="4"/>
  <path d="m380.23 552.24c0.00125 4.173-3.3813 7.5565-7.5542 7.5565s-7.5555-3.3835-7.5542-7.5565 3.3813-7.5565 7.5542-7.5565 7.5555 3.3835 7.5542 7.5565z"/>
  <path d="m338.2 552.24c0.00125 4.173-3.3813 7.5565-7.5542 7.5565s-7.5555-3.3835-7.5542-7.5565 3.3813-7.5565 7.5542-7.5565 7.5555 3.3835 7.5542 7.5565z"/>
  <path d="m429.83 533.41-1.875 2.6562c0.24888 3.0755 0.34375 6.2026 0.34375 9.375 0 45.174-55.127 81.844-81.844 81.844-20.706 2e-5 -61.097-23.756-76.062-56.594 7.6158 40.246 57.172 71.375 80.875 71.375 26.717 0 81.844-36.669 81.844-81.844 0-9.3916-1.0754-18.41-3.2812-26.812z" fill-opacity=".31373"/>
  <path d="m367.87 612.87c-2.2927 3.9731-6.5002 5.8386-9.3968 4.1663s-3.3847-6.2489-1.0903-10.221 6.5003-5.8386 9.3968-4.1663 3.3847 6.2489 1.0903 10.221z"/>
  <path d="m335.13 612.87c2.2927 3.9731 6.5002 5.8386 9.3968 4.1663s3.3847-6.2489 1.0903-10.221-6.5003-5.8386-9.3968-4.1663-3.3847 6.2489-1.0903 10.221z"/>
  <path d="m276.13784,641.01688c-3.29969-.34546-6.27774,2.03968-6.6232,5.33939-.05524.5277-.0194,1.04476.05813,1.5457-2.78152.27262-5.09905,2.48582-5.40132,5.37306-.34546,3.29971 2.07403,6.24993 5.37372,6.59538 .75259.07879 1.46564.00197 2.15575-.18279-.16989,3.17347 2.17561,5.97779 5.37194,6.31242 3.29972.34544 6.24992-2.07401 6.59538-5.37374 .08637-.82493.00559-1.63304-.22216-2.37981 2.57267-.45549 4.66767-2.56718 4.95317-5.29429 .34545-3.29972-2.07401-6.24992-5.37372-6.59538-.5265-.05512-1.04256-.05004-1.54246.02704-.27261-2.78152-2.45798-5.06471-5.34523-5.36698zm.29299,11.90773c.03987.40692.10311.80409.22148,1.18576-.1726.03061-.34586.05813-.51355.10333 .02279-.4257.00753-.85594-.05633-1.26272 .11437-.01121.23577-.00874.3484-.02637z" fill="#ff0" stroke="#000" stroke-linecap="round" stroke-linejoin="round" stroke-width="4"/>
 </g>
</svg>
