<?xml version="1.0" encoding="UTF-8"?>
<svg viewBox="0 0 1525 653" xmlns="http://www.w3.org/2000/svg">
 <g fill-rule="evenodd">
  <path d="m705 397c4 0 7 1.3333 9 4s3.3333 6.3333 4 11c0.66669 4.6667 0.33331 7.6667-1 9 0 2-1 4-3 6-2 2.6667-5 4-9 4h-6c-1.3333-0.66666-2.6667-2.3333-4-5-2.6667-2.6667-4-6.3333-4-11v-10l4-6c2-1.3333 5.3333-2 10-2z" fill="#f8f8f8" stroke="#f8f8f8"/>
  <path d="m698 339c8 0 14.333 1.3333 19 4 4.6667 2.6667 8 5 10 7 2.6667 2.6667 4.3333 4 5 4 0.66669 0.66666 2.3333 3 5 7s5.3333 9.3333 8 16c2.6667 7.3333 4 15.333 4 24 0 8.6667-0.66669 16.667-2 24-2.6667 6.6667-5.3333 12.667-8 18-3.3333 5.3333-7 9.6667-11 13s-8.3333 6.3333-13 9c-4.6667 1.3333-9.6667 2.3333-15 3-5.3333 0.66666-11-0.33334-17-3-6.6667-2.6667-10.667-4.6667-12-6-2-2-3.3333-3-4-3-0.66669-0.66666-1.3333-1.3333-2-2-0.66669-1.3333-1.3333-2-2-2-0.66669-0.66666-2.3333-2.6667-5-6-2-4-4.3333-9-7-15-2.6667-6.6667-4-15.333-4-26 0-10 0.33331-17 1-21s2.3333-8.6667 5-14 6.3333-10.333 11-15c4-5.3333 8.6667-9.3333 14-12s12-4 20-4zm-2 23c6-0.66666 10-0.33334 12 1 2 0 5 1.6667 9 5s7.6667 8 11 14 5 13.333 5 22c0 8.6667-0.66669 15.333-2 20-1.3333 4.6667-3.6667 9-7 13s-7 7-11 9-8.3333 3.3333-13 4c-4.6667 0.66666-9 0.33334-13-1-3.3333-1.3333-7-4-11-8-3.3333-4-6.3333-8.6667-9-14s-4-11.667-4-19c0-7.3333 0.33331-13 1-17 0.66669-3.3333 2.3333-7.3333 5-12s6.3333-8.6667 11-12c4.6667-2.6667 10-4.3333 16-5z" fill="#f9f9f9" stroke="#f9f9f9"/>
  <g fill="#fff" stroke="#7b0000">
   <path d="m533 333v4h-1l-5 1-6 1h-5v-1h-1l-2-21c-2-13.333 0.66669-19 8-17 6.6667 2 10.333 7 11 15 0.66669 8.6667 1 14.667 1 18z"/>
   <path d="m602 449l1 6v5h-1v-1h-1v-1l-1-1-1-1v-1l-1-1-1-1-6-11c-5.3333-7.3333-10-16-14-26s-7.3333-21-10-33c-2.6667-11.333-4-20.333-4-27-0.66669-6.6667 3-9.3333 11-8s12 7.6667 12 19c0.66669 10.667 2.3333 22 5 34 2.6667 12.667 4.6667 21.333 6 26 2.6667 5.3333 4 9.3333 4 12s0.33331 6 1 10z"/>
  </g>
  <path d="m696 362c6-0.66666 10-0.33334 12 1 2 0 5 1.6667 9 5s7.6667 8 11 14 5 13.333 5 22c0 8.6667-0.66669 15.333-2 20-1.3333 4.6667-3.6667 9-7 13s-7 7-11 9-8.3333 3.3333-13 4c-4.6667 0.66666-9 0.33334-13-1-3.3333-1.3333-7-4-11-8-3.3333-4-6.3333-8.6667-9-14s-4-11.667-4-19c0-7.3333 0.33331-13 1-17 0.66669-3.3333 2.3333-7.3333 5-12s6.3333-8.6667 11-12c4.6667-2.6667 10-4.3333 16-5zm0 30v1h-1c-0.66669 0-1.3333 0.66666-2 2h-6c-3.3333 0-6-0.66666-8-2-1.3333-1.3333-2.6667-3.3333-4-6l-2-4v-1l1-2 1-2 3-3c2-2.6667 5-4 9-4 3.3333 0 6 1.3333 8 4 2.6667 2 4 4.6667 4 8 0 4-0.66669 6.3333-2 7 0 0.66666-0.33331 1.3333-1 2zm9 5c4 0 7 1.3333 9 4s3.3333 6.3333 4 11c0.66669 4.6667 0.33331 7.6667-1 9 0 2-1 4-3 6-2 2.6667-5 4-9 4h-6c-1.3333-0.66666-2.6667-2.3333-4-5-2.6667-2.6667-4-6.3333-4-11v-10l4-6c2-1.3333 5.3333-2 10-2z" fill="#040404" stroke="#040404"/>
  <path d="m810 384l-1-6 1-1 1-1c0-0.66666 0.66669-1.6667 2-3 2-1.3333 4.6667-2 8-2 4 0 7 1 9 3s3 5 3 9-1 7-3 9-4.6667 3-8 3-6-0.66666-8-2c-2-2-3.3333-5-4-9z" fill="#f7f7f7" stroke="#f7f7f7"/>
  <path d="m998 242l-1 1h-1v1h-1v1h-1v1h1v1h1v2h4l3-2 3-2v-1h1v-1h2v2l1 1v8h-1v1h-1c-1.3333 0-4.6667 1.6667-10 5l-7 5h-2l-1 1h-1v-2l-1-2v-3c0-1.3333-2-8-6-20-4-11.333-8.6667-22.667-14-34s-12-22.333-20-33c-7.3333-10.667-11.333-16-12-16-0.66669 0-2.6667-2-6-6-4-4-10.333-9.6667-19-17-8.6667-8-18.333-15-29-21-10-6-20.667-11.667-32-17-11.333-4-23.667-7.6667-37-11s-28.333-5-45-5h-34c-5.3333 1.3333-14.667 3.3333-28 6-13.333 4-26 8.6667-38 14-11.333 5.3333-22 11-32 17-9.3333 6-18.333 13-27 21-8.6667 8-15 14.667-19 20-4 4.6667-6.3333 7-7 7-0.66669 0-1.6667 1-3 3-1.3333 2.6667-5.3333 9.3333-12 20s-12.333 21.333-17 32c-4.6667 10.667-8 21-10 31l-4 15h-2l-1-1-1-1h-1l-8-5-9-5h-1v-9l1-1 1-2 1 1 1 1 4 2c1.3333 2 2.3333 3 3 3v1h5v-2h1v-1h1v-1h-1v-1h-1v-1h-1l-6-5c-3.3333-3.3333-4.3333-9-3-17 1.3333-7.3333 4.6667-17.333 10-30 5.3333-13.333 11.333-25 18-35 6-10 13-20 21-30 7.3333-9.3333 15.667-18.333 25-27 9.3333-8 20.333-16 33-24s25-14.667 37-20c11.333-5.3333 22.667-9.3333 34-12s22-4.6667 32-6 22.667-2 38-2c16 0 30.667 1.3333 44 4s26.333 6.6667 39 12c12.667 4 24.667 9.3333 36 16s21 13.333 29 20c8.6667 6.6667 13.667 10.333 15 11 1.3333 0.66666 3 2.3333 5 5l7 7c2 2.6667 4 4.6667 6 6s7.6667 9 17 23c9.3333 13.333 16.667 25 22 35 5.3333 10 10 21 14 33 4 12.667 6 20.667 6 24 0 3.3333-1.3333 6-4 8-2 1.3333-3.3333 2.3333-4 3z" fill="#fff" stroke="#7d0000"/>
  <path d="m758 290c10-0.66666 17.333-0.33334 22 1 4.6667 0 12.333 1.6667 23 5s20.667 7.3333 30 12c8.6667 4.6667 16.333 10 23 16 6.6667 6 13.333 12.667 20 20 6 8 11.667 16.667 17 26 4 9.3333 7.3333 19.333 10 30s4.3333 21.333 5 32c0.66669 10.667 0.33331 19-1 25-1.3333 6.6667-3.3333 14.667-6 24-2.6667 9.3333-6.6667 18.667-12 28-5.3333 9.3333-10 16.333-14 21-4 4.6667-10.333 10.333-19 17-8.6667 8-17.667 14-27 18-9.3333 5.3333-19 9.3333-29 12s-21.667 4-35 4c-12.667 0-23.667-0.66669-33-2-9.3333-2.6667-17.667-5.3333-25-8-8-2.6667-16.333-7-25-13-8.6667-6-15.667-11.667-21-17-6-5.3333-12-12-18-20-5.3333-8-10-16.333-14-25-4-9.3333-7.3333-18.333-10-27-1.3333-9.3333-2.3333-19-3-29-0.66669-10-0.33331-18.333 1-25 1.3333-6.6667 3.3333-14.333 6-23 2.6667-8.6667 6.3333-17.667 11-27 4.6667-8.6667 10-16.333 16-23 6-7.3333 12.667-13.667 20-19 7.3333-6.6667 16-12.333 26-17 10-4.6667 20.333-8.3333 31-11s21-4.3333 31-5zm-60 49c8 0 14.333 1.3333 19 4 4.6667 2.6667 8 5 10 7 2.6667 2.6667 4.3333 4 5 4 0.66669 0.66666 2.3333 3 5 7s5.3333 9.3333 8 16c2.6667 7.3333 4 15.333 4 24 0 8.6667-0.66669 16.667-2 24-2.6667 6.6667-5.3333 12.667-8 18-3.3333 5.3333-7 9.6667-11 13s-8.3333 6.3333-13 9c-4.6667 1.3333-9.6667 2.3333-15 3-5.3333 0.66666-11-0.33334-17-3-6.6667-2.6667-10.667-4.6667-12-6-2-2-3.3333-3-4-3-0.66669-0.66666-1.3333-1.3333-2-2-0.66669-1.3333-1.3333-2-2-2-0.66669-0.66666-2.3333-2.6667-5-6-2-4-4.3333-9-7-15-2.6667-6.6667-4-15.333-4-26 0-10 0.33331-17 1-21s2.3333-8.6667 5-14 6.3333-10.333 11-15c4-5.3333 8.6667-9.3333 14-12s12-4 20-4zm135 0c7.3333 0 13.667 1.3333 19 4 5.3333 2.6667 10.333 6.6667 15 12 4 5.3333 7.3333 11.333 10 18 2.6667 6 4.6667 13.333 6 22 1.3333 8 1.3333 15.333 0 22-1.3333 7.3333-4 14.333-8 21-2.6667 6.6667-4.6667 10.333-6 11-1.3333 1.3333-3 3.3333-5 6s-6 5.3333-12 8-11.667 4.3333-17 5c-5.3333 0.66666-10 0.33334-14-1s-8-3.3333-12-6-8-6.3333-12-11-7.3333-10.333-10-17c-2.6667-6.6667-4-16.667-4-30 0-12.667 1.3333-22.667 4-30 2.6667-6.6667 6.3333-12.667 11-18 4.6667-5.3333 9.6667-9.3333 15-12s12-4 20-4zm13 149l-1-1v-2l-1-2-1-1v-2h2v2l1 1 1 2v2l4 5c1.3333 3.3333 3 5 5 5 1.3333 0 2.3333 0.66666 3 2 0.66669 2 1.3333 3 2 3 0.66669 0.66666 1 1 1 1h1l2 1 1 1h3l1 1 1 1h-4l-2-1-1-1h-1c-1.3333 0-2.6667-0.33334-4-1s-5.6667 2.3333-13 9-15 12-23 16c-7.3333 5.3333-15.333 9-24 11-9.3333 2-21.333 3-36 3-14 0-25.333-1-34-3-9.3333-2-17-5-23-9-6-2.6667-14-8.3333-24-17s-16.333-12.333-19-11l-5 2-1 1-2 1h-3v1h-1v-2h1l1-1h3l1-1 1-1 5-2c2.6667-2 5-4 7-6s3.6667-5 5-9 2.3333-5.6667 3-5c0.66669 0-0.33331 2.6667-3 8-1.3333 4.6667 2 10.667 10 18 8.6667 6.6667 16.667 12 24 16 6.6667 4 14 7.3333 22 10 8 1.3333 18.667 2 32 2 14 0 24.667-0.66669 32-2 8-2.6667 15.333-5.6667 22-9 6.6667-3.3333 14-8.3333 22-15s11.333-11.667 10-15c-1.3333-3.3333-2.3333-5.3333-3-6z" stroke="#010101"/>
  <path d="m754 0h23l4 1 20 2c12.667 2.6667 25.333 6 38 10 13.333 4 26.333 9 39 15s24 12.667 34 20c10 7.3333 19 14.333 27 21 8 6.6667 12.333 10.667 13 12 0.66669 1.3333 1.3333 2 2 2 0.66669 0 6.3333 7 17 21s19.333 27.333 26 40c6.6667 12.667 12 25.333 16 38s6.6667 21 8 25c1.3333 4.6667 2 8 2 10v2l1 2 1 1v-1h1v-1h1v-1l15-8c10-5.3333 19.667-9.6667 29-13 8.6666-3.3333 15.333-5 20-5 5.3334-1.3333 14-1.6667 26-1 11.333 0.66667 24 2.6667 38 6s29.333 8.6667 46 16c17.333 7.3333 34.333 15.667 51 25 16.667 8.6667 36.333 19.333 59 32 21.333 13.333 44.667 28 70 44s47.333 24 66 24c18 1.3333 34 6 48 14 14.667 8 22.333 12.333 23 13l1 1h2v1h1v1h2v1h1v1h-32c-21.333 0-39.333-4.6667-54-14-15.333-8-33.333-18.667-54-32-21.333-12.667-46-27.333-74-44s-51.667-30-71-40c-20-10.667-37.667-18.667-53-24-14.667-6.6667-27.667-11.333-39-14-11.333-2.6667-23.333-4-36-4s-23.667 1.3333-33 4c-10 2.6667-20 7-30 13-10.667 5.3333-16 8.3333-16 9 0 0.66667-1.3334 1.6667-4 3s-3.6666 4.3333-3 9l1 7v3h1l13-4c9.3334-2.6667 20-4 32-4 12.667 0 24.667 1.3333 36 4 10.667 2.6667 22.333 7 35 13s27 13.667 43 23c16 9.3333 34 20.667 54 34 20 14 37.667 27 53 39 16 11.333 24.333 17.333 25 18 0.66663 0 1 0.33334 1 1s1 1.3333 3 2c1.3334 0.66666 2 1.3333 2 2 0 0.66666 5 4.6667 15 12 10 8 18.333 14.333 25 19 6.6666 4.6667 10 7.3333 10 8 0 0.66666 9 2 27 4s33.667 7.6667 47 17 20 14 20 14h1l1 1 1 1h1l1 1 1 1h1l1 1 1 1h1-10c-4 0-14-0.66666-30-2s-30.667-6.6667-44-16c-12.667-9.3333-23.667-17.333-33-24-9.3334-6.6667-22.333-16.333-39-29s-25-19.333-25-20c0-0.66666-1.6666-1.6667-5-3-2.6666-2-4-3.3333-4-4 0-0.66666-4.6666-4-14-10-9.3334-6.6667-22.333-16-39-28s-33-22.667-49-32c-15.333-9.3333-29.333-16.667-42-22-13.333-6.6667-25.667-11.333-37-14-11.333-2.6667-22.667-4-34-4s-21.667 1-31 3c-10 2.6667-15.333 9.6667-16 21v17l18 1c12 0 22.667 1.6667 32 5 10 3.3333 20 7.3333 30 12s22 12.333 36 23 23.667 18 29 22c6 4.6667 9 7.3333 9 8 0 0.66666 2.6666 3.3333 8 8s10.667 9 16 13c4.6666 4 8 7 10 9 1.3334 2.6667 2.3334 4 3 4 0.66663 0 1.3334 0.66666 2 2 0.66663 1.3333 1.3334 2 2 2 0.66663 0 1.3334 0.66666 2 2 0.66663 1.3333 1.3334 2 2 2 0.66663 0 1.3334 0.66666 2 2 0.66663 1.3333 1.3334 2 2 2 0.66663 0 1.3334 0.66666 2 2 0.66663 1.3333 1.3334 2 2 2 0.66663 0 1.3334 0.66666 2 2 0.66663 1.3333 1.3334 2 2 2 0.66663 0 1.3334 0.66666 2 2 0.66663 1.3333 1.3334 2 2 2 0.66663 0 1.6666 1 3 3 2 2 3.3334 3.3333 4 4 0.66663 0 1.3334 0.66666 2 2 0.66663 0.66666 1.3334 1.3333 2 2 0.66663 0 1.3334 0.66666 2 2 0.66663 0.66666 1.3334 1.3333 2 2 0.66663 0 4 3.3333 10 10 5.3334 6.6667 8.3334 10 9 10 0.66663 0 1.3334 0.66666 2 2 0.66663 0.66666 1.3334 1.3333 2 2 0.66663 0 5.3334 5 14 15 8.6666 9.3333 15 16 19 20 3.3334 4 5.3334 6.3333 6 7 0.66663 0 1.3334 0.66666 2 2 0.66663 0.66666 1.3334 1.3333 2 2 0.66663 0 2.6666 1.6667 6 5 2.6666 4 12.667 6 30 6s33 3.6667 47 11 21.667 11.333 23 12l1 1h2v1h1v1h2l1 1 1 1h-10c-6 0-16.667 0.33331-32 1-14.667 0.66669-31-4-49-14s-26.333-15-25-15c0.66663 0-3.6666-5.3333-13-16l-18-18c-2.6666-2.6667-4.6666-5-6-7-2-2-4-4.3333-6-7-2.6666-2-4-3.3333-4-4-0.66663-0.66666-1.3334-1.3333-2-2-0.66663 0-1-0.33334-1-1s-0.66663-1.3333-2-2c-1.3334-0.66666-4.6666-4-10-10s-18.667-19.333-40-40-38.667-36.667-52-48-22.667-19-28-23c-5.3334-3.3333-8-5.3333-8-6 0-0.66666-1.3334-2-4-4-3.3334-1.3333-10.333-5-21-11s-21-10.333-31-13c-9.3334-2.6667-19.667-4.3333-31-5-11.333-0.66666-18.333 6.6667-21 22-2.6667 15.333-2.3333 23.667 1 25 4 1.3333 11.667 4.6667 23 10 12 6 18 9.3333 18 10 0 0.66666 0.33337 1 1 1 0.66663 0.66666 3 2.3333 7 5 4.6666 4 11.333 10 20 18 8 8 16.667 17.333 26 28 9.3334 10.667 15 16.667 17 18 1.3334 1.3333 2.3334 2.6667 3 4 0.66663 2 1.3334 3 2 3 0.66663 0 4.6666 5 12 15 6.6666 10 10.333 15 11 15 0.66663 0 1 0.33334 1 1s3 5 9 13c6 8.6667 21.667 31.333 47 68 24.667 36.667 44.667 56.333 60 59 16 2.6667 27.667 6.6667 35 12 7.3334 5.3333 12.667 9.3333 16 12 3.3334 2 5 3.3333 5 4 0 0.66669 2 2.3333 6 5l5 3v1h1v1h2v1h1v1h2v2h-1l-4-1-5-1h-3c-1.3334 0-10-1.3333-26-4-16-1.3333-25-2.6667-27-4s-3-2.3333-3-3c0-0.66669-6.6666-6-20-16l-20-15h-1v-1h-1v-1h-2 7v-1h-1v-2l-1-1c-0.66663-0.66669-2.3334-3.3333-5-8-4-4.6667-14-19.333-30-44-17.333-25.333-28.667-42.333-34-51-6-8.6667-9.3334-13-10-13-0.66663 0-1-0.33334-1-1-0.66663-0.66666-6.3334-8.3333-17-23-12-15.333-18.667-23.667-20-25-1.3334-1.3333-5-5.6667-11-13-6-8-11.333-14-16-18-4.6666-4.6667-8-8-10-10-2.6666-2.6667-4-4.3333-4-5-0.66663-0.66666-3-3-7-7-5.3334-4-12.667-9.3333-22-16-10-6.6667-19.667-12-29-16l-14-5v1c-0.66669 0.66666-1 2-1 4-1.3333 2-4.6667 9.3333-10 22s-11.333 24.667-18 36c-8 12-12.667 18.667-14 20l-4 6c-1.3333 1.3333-5.6667 6-13 14-7.3333 8.6667-15 16.333-23 23l-12 9v1h-1v1h-1l-1 1-1 1h-1v1h-1v-3h1v-1h1v-1h2v-1h1v-1h1v-1l12-11c8-6.6667 15.333-14 22-22 6.6667-8 13.333-18 20-30 8-11.333 14.667-23.667 20-37 5.3333-13.333 8-21.333 8-24 1.3333-2.6667 2-4.3333 2-5v-1l1-2v-2h-1l-1-1h-7l-4-1h-4v3c0 1.3333-0.66669 4.6667-2 10-1.3333 4.6667-3.3333 12-6 22-4 10-8 19.333-12 28-4 9.3333-9.3333 19-16 29s-11 15.667-13 17c-2 2-3 3.3333-3 4 0 0.66666-2.3333 3.3333-7 8l-7 7v1h-1v1h-1v1h-1v1h-1v1h-1v1h-1v-5l1-2 1-2v-2c0-1.3333 0.33331-3.3333 1-6l1-4v3h1v-1h1v-2h1v-1h1v-2h1v-1h1s0.66669-1.3333 2-4c1.3333-2 4.6667-8.3333 10-19s10-21.667 14-33c2.6667-10.667 5-22 7-34l2-17-12 2c-8 1.3333-12.333 9.6667-13 25-1.3333 14.667-3.3333 27-6 37s-4.6667 16.667-6 20c-1.3333 3.3333-2 6.6667-2 10v5h-1v-8c-0.66669-4.6667-1.3333-11.333-2-20-0.66669-8.6667-3-18.667-7-30-4-10.667-8.6667-20.667-14-30-5.3333-9.3333-10.667-17.333-16-24-6.6667-6.6667-13.667-13.333-21-20-8-6.6667-17.333-12.667-28-18-10.667-5.3333-21.333-9.3333-32-12s-22.333-4-35-4h-27c-4.6667 1.3333-11 3-19 5-8.6667 2-18 5.6667-28 11s-19 10.667-27 16c-8 6-14.667 12-20 18-4.6667 6-9.6667 12.667-15 20-5.3333 8-9.6667 16-13 24-3.3333 8.6667-6.3333 18-9 28-2.6667 10.667-4 20.667-4 30v24c1.3333 6 3.3333 14 6 24l4 15v2l1 1 1 2v2h-1l-1-1v-2l-1-1-1-1-1-1h-1l-12-9c-8-5.3333-12-8.3333-12-9 0-0.66666-0.33331-1-1-1-0.66669-0.66666-5.6667-5.3333-15-14-8.6667-8.6667-14-14.667-16-18-2.6667-2.6667-4.3333-4-5-4-0.66669 0-3-3-7-9-4.6667-6.6667-10.333-15.667-17-27-7.3333-12-13-23.667-17-35l-7-18-9 3c-5.3333 2-12 5.6667-20 11-8 4.6667-12.667 7.3333-14 8-2 1.3333-3 2.3333-3 3 0 0.66666-2.3333 3-7 7-5.3333 4-9.3333 7.3333-12 10-4 3.3333-6 5.3333-6 6 0 0.66666-0.66666 1.3333-2 2-1.3333 0.66666-2 1.3333-2 2 0 0.66666-0.33334 1-1 1s-2.3333 2-5 6c-3.3333 4-6 7-8 9-2.6667 2-5.3333 5.3333-8 10-3.3333 4-6 7-8 9-2.6667 2-11 12.667-25 32s-31.667 44.333-53 75c-21.333 31.333-33 48.667-35 52-2 4-3.3333 6-4 6v1h-1v2h-1v1h7-1l-1 1-1 1h-1l-20 15c-13.333 10-20 15.333-20 16 0 0.66669-1 1.6667-3 3s-11 2.6667-27 4c-16 2.6667-24.667 4-26 4h-3l-5 1-4 1h-1v-2h2v-1h1v-1h1l1-1 1-1c0.66667 0 6-4 16-12 10.667-7.3333 16-11.333 16-12 0-0.66669 1.6667-2 5-4 2.6667-2.6667 12-5.3333 28-8 16.667-2.6667 33.667-17 51-43 17.333-26.667 26.333-40 27-40 0.66666 0 3-3 7-9 3.3333-6 8.6667-14.333 16-25s11.333-16 12-16c0.66666 0 1-0.33334 1-1s6.6667-9.6667 20-27 20.333-26 21-26c0.66666 0 4-3.6667 10-11 6-8 9.3333-12 10-12 0.66666 0 1.3333-0.66666 2-2 0.66666-1.3333 1.3333-2 2-2 0.66666 0 1.6667-1.3333 3-4 2-2 3.3333-3 4-3l2-2c0.66666-1.3333 1.3333-2 2-2l2-2c0.66666-1.3333 2.3333-3 5-5 3.3333-2 9.3333-6.3333 18-13s17.667-12 27-16c8.6667-4.6667 11.667-15 9-31-2.6667-16-7-24-13-24s-11.333 0.66666-16 2c-5.3333 1.3333-13 3.6667-23 7s-20.333 8.3333-31 15c-11.333 6.6667-25 16.333-41 29s-24 19.333-24 20c0 0.66666-0.33334 1-1 1s-1.3333 0.66666-2 2c-0.66666 1.3333-2.3333 3-5 5s-15 13.667-37 35c-21.333 21.333-36.667 37.333-46 48-9.3333 10-14.333 15-15 15-0.66667 0.66666-1.3333 1.3333-2 2-0.66667 1.3333-1.3333 2-2 2-0.66667 0.66666-6 6.3333-16 17-10 11.333-14.667 17.333-14 18 0.66667 0-8 5-26 15s-37.667 14.333-59 13h-32l1-1 1-1h1l1-1 1-1h2l1-1c0.66666-0.66669 8.3333-5 23-13s30.667-11.667 48-11c17.333 0.66669 27.667-1 31-5 4-4 9.6667-10.333 17-19 7.3333-8.6667 11.333-13 12-13 0.66667 0 5-4.6667 13-14 8-8.6667 23.333-24 46-46 22-22.667 34-35 36-37 2.6667-2.6667 9.6667-8.6667 21-18s23-19 35-29c13.333-9.3333 24.667-16.667 34-22 9.3333-5.3333 18.667-9.6667 28-13 9.3333-3.3333 20-5.6667 32-7 11.333-1.3333 17-8 17-20-0.66666-11.333-3.3333-17.667-8-19-5.3333-2-12.333-3-21-3-9.3333-1.3333-17.667-1.3333-25 0-7.3333 1.3333-15.667 3.3333-25 6-8.6667 2.6667-19.333 6.6667-32 12-12.667 6.6667-27 14.667-43 24-16 9.3333-36.333 23-61 41-25.333 17.333-38 26.333-38 27 0 0.66666-0.33333 1-1 1-0.66667 0.66666-11.333 9-32 25s-41.333 31-62 45c-20 14-40.333 22.333-61 25l-32 2h-2 1l1-1 1-1h1l1-1 1-1h1l21-14c13.333-9.3333 20-14.333 20-15 0-0.66666 7-1.6667 21-3s23-2.6667 27-4c4.6667 0 8-0.66666 10-2s3-2.3333 3-3c0-0.66666 1-1.3333 3-2 1.3333-0.66666 2-1.3333 2-2 0-0.66666 3.3333-3 10-7 6-4.6667 9-7.3333 9-8 0-0.66666 4.3333-4 13-10 8-6 12.333-9.3333 13-10 0-0.66666 1.6667-2 5-4 4-2.6667 15-10.667 33-24s27.333-20.333 28-21c0.66666 0 1-0.33334 1-1s11.333-8.3333 34-23c22.667-14 41-25 55-33 14-6.6667 27-12 39-16 11.333-4 21.333-6.6667 30-8 8.6667-1.3333 17.333-2 26-2 9.3333 0 16.667 0.66667 22 2 4.6667 1.3333 7.6667 2 9 2h2v-2l1-3v-1l1-6c0.66666-4.6667-4.3333-9.6667-15-15-10-6-19.667-10.333-29-13-9.3333-2.6667-19-4-29-4-9.3333 0-18.333 0.66667-27 2-8.6667 1.3333-20.333 4.3333-35 9-15.333 4.6667-32 11.333-50 20-17.333 8.6667-36 18.333-56 29-20.667 12-49.333 29.333-86 52-36 22.667-61.333 38-76 46s-33.333 12.333-56 13l-33 1 1-1 1-1h2l1-1 1-1h1l24-14c15.333-9.3333 32-14 50-14 18-1.3333 43.667-12 77-32 33.333-21.333 61-38 83-50 21.333-12 41.333-22.667 60-32 18.667-9.3333 36-16.667 52-22 16-5.3333 28-8.6667 36-10 8.6667-1.3333 18.667-1.6667 30-1 11.333 0.66667 22.667 2.3333 34 5 10.667 4 19.333 7.6667 26 11 6.6667 3.3333 10.333 5.3333 11 6l1 1h2v1l1-1 1-2 6-20c4-14 8.6667-26.667 14-38 5.3333-12 11.333-23 18-33 6.6667-10.667 14.333-20.667 23-30 8-10 14.333-17 19-21 5.3333-4 8-6.3333 8-7 0-0.66666 6.3333-5.3333 19-14s25-16.333 37-23c12.667-5.3333 26-10.333 40-15 14-4.6667 26.667-7.6667 38-9 12-1.3333 24.333-2.3333 37-3zm245 242l-1 1h-1v1h-1v1h-1v1h1v1h1v2h4l3-2 3-2v-1h1v-1h2v2l1 1v8h-1v1h-1c-1.3333 0-4.6667 1.6667-10 5l-7 5h-2l-1 1h-1v-2l-1-2v-3c0-1.3333-2-8-6-20-4-11.333-8.6667-22.667-14-34s-12-22.333-20-33c-7.3333-10.667-11.333-16-12-16-0.66669 0-2.6667-2-6-6-4-4-10.333-9.6667-19-17-8.6667-8-18.333-15-29-21-10-6-20.667-11.667-32-17-11.333-4-23.667-7.6667-37-11s-28.333-5-45-5h-34c-5.3333 1.3333-14.667 3.3333-28 6-13.333 4-26 8.6667-38 14-11.333 5.3333-22 11-32 17-9.3333 6-18.333 13-27 21-8.6667 8-15 14.667-19 20-4 4.6667-6.3333 7-7 7-0.66669 0-1.6667 1-3 3-1.3333 2.6667-5.3333 9.3333-12 20s-12.333 21.333-17 32c-4.6667 10.667-8 21-10 31l-4 15h-2l-1-1-1-1h-1l-8-5-9-5h-1v-9l1-1 1-2 1 1 1 1 4 2c1.3333 2 2.3333 3 3 3v1h5v-2h1v-1h1v-1h-1v-1h-1v-1h-1l-6-5c-3.3333-3.3333-4.3333-9-3-17 1.3333-7.3333 4.6667-17.333 10-30 5.3333-13.333 11.333-25 18-35 6-10 13-20 21-30 7.3333-9.3333 15.667-18.333 25-27 9.3333-8 20.333-16 33-24s25-14.667 37-20c11.333-5.3333 22.667-9.3333 34-12s22-4.6667 32-6 22.667-2 38-2c16 0 30.667 1.3333 44 4s26.333 6.6667 39 12c12.667 4 24.667 9.3333 36 16s21 13.333 29 20c8.6667 6.6667 13.667 10.333 15 11 1.3333 0.66666 3 2.3333 5 5l7 7c2 2.6667 4 4.6667 6 6s7.6667 9 17 23c9.3333 13.333 16.667 25 22 35 5.3333 10 10 21 14 33 4 12.667 6 20.667 6 24 0 3.3333-1.3333 6-4 8-2 1.3333-3.3333 2.3333-4 3zm-49 71h-1v1h-1v1h-1v1l1 1 1 2v2h1l3-2c2.6667-1.3333 4.3333-2 5-2h1v-1h1v1h1v5c0 3.3333 0.33331 7 1 11 0 4-4.3333 6.6667-13 8l-12 2v-2c0-0.66666-0.66669-3-2-7 0-4-2-11.333-6-22-2.6667-10.667-6.6667-20.667-12-30-5.3333-9.3333-11.333-18.333-18-27-6.6667-9.3333-11.333-15-14-17-2-2.6667-4-5-6-7-2.6667-1.3333-8.6667-5.3333-18-12-10.667-6.6667-20.333-12-29-16-8.6667-4-18.333-7.3333-29-10s-23.333-4-38-4-24.667 0.33333-30 1c-6 0.66667-13.333 2.3333-22 5-8 2.6667-17.333 6.3333-28 11-10 4.6667-19.333 10.333-28 17-9.3333 6.6667-15.667 12-19 16-3.3333 4-5.3333 6-6 6-0.66669 0-2.3333 1.6667-5 5s-6.3333 8.6667-11 16-9.6667 16.333-15 27c-4 10-7.3333 20.667-10 32l-4 18h-1c-0.66669 0-4.6667-0.66666-12-2s-11-4.6667-11-10v-15l5 2c3.3333 0.66666 5.6667 1 7 1h2l1-1 1-1v-2h-1l-1-1-1-1h-1l-6-3c-3.3333-1.3333-3.6667-7.6667-1-19 3.3333-11.333 7.3333-22.667 12-34 4.6667-10.667 10.667-21 18-31 6.6667-10 14.333-19.333 23-28 9.3333-8.6667 19.333-16.667 30-24 10-7.3333 20.333-13 31-17 10.667-5.3333 21.667-9.3333 33-12 10.667-2.6667 26.333-4 47-4s37.333 2 50 6c12.667 2.6667 24 6.6667 34 12 10 4 20 9.6667 30 17s19.333 15 28 23c8.6667 8.6667 16.333 18 23 28 6.6667 10 12 20 16 30 5.3333 10 9.3333 20 12 30s3.6667 16.333 3 19c0 2-1 3.6667-3 5-2.6667 1.3333-4.3333 2-5 2zm-418-22v4h-3l-10-3c-6-1.3333-8.6667-7-8-17 0-10 4-13 12-9 7.3333 4 10.667 8.6667 10 14 0 5.3333-0.33331 9-1 11zm463 4h-1l-1 1h-1v-1l-1-2v-10c-0.66669-6.6667 2.6667-12 10-16 6.6667-4 10.667-1.3333 12 8 0 9.3333-2.6667 15-8 17s-8.6667 3-10 3zm-462 38v4h-1l-5 1-6 1h-5v-1h-1l-2-21c-2-13.333 0.66669-19 8-17 6.6667 2 10.333 7 11 15 0.66669 8.6667 1 14.667 1 18zm474 6h-2l-6-1-5-1h-4l1-17c0.66669-11.333 4.6667-17.667 12-19 6.6667-2 9.3333 4 8 18-2 13.333-3.3333 20-4 20zm-402 138h1v1h1v1l1 2 1 1v4-1h-1v-1h-1v-1h-2v-1h-1v-1h-1v-1l-5-3c-2.6667-2-4-3.3333-4-4 0-0.66666-0.33331-1-1-1-0.66669-0.66666-4.6667-4.6667-12-12-6.6667-7.3333-14.333-16.667-23-28-8.6667-11.333-16-23.667-22-37s-10.667-24.667-14-34l-4-15 8-1c6 0 10.333 6 13 18 2.6667 12 6 22.667 10 32 4 10 9 20 15 30 6 9.3333 12.667 18.667 20 28 7.3333 8.6667 12.667 14.667 16 18l5 6zm-3-28l1 6v5h-1v-1h-1v-1l-1-1-1-1v-1l-1-1-1-1-6-11c-5.3333-7.3333-10-16-14-26s-7.3333-21-10-33c-2.6667-11.333-4-20.333-4-27-0.66669-6.6667 3-9.3333 11-8s12 7.6667 12 19c0.66669 10.667 2.3333 22 5 34 2.6667 12.667 4.6667 21.333 6 26 2.6667 5.3333 4 9.3333 4 12s0.33331 6 1 10z" fill="#010000" stroke="#010000"/>
  <g fill="#fff">
   <g stroke="#7a0000">
    <path d="m995 295h-1l-1 1h-1v-1l-1-2v-10c-0.66669-6.6667 2.6667-12 10-16 6.6667-4 10.667-1.3333 12 8 0 9.3333-2.6667 15-8 17s-8.6667 3-10 3z"/>
    <path d="m989 347v-3h4l4 1h7l1 1h1v2l-1 2v1c0 0.66666-0.66669 2.3333-2 5 0 2.6667-2.6667 10.667-8 24s-12 25.667-20 37c-6.6667 12-13.333 22-20 30-6.6667 8-14 15.333-22 22l-12 11v1h-1v1h-1v1h-2v2h-2v-2l1-1 1-1v-3h1v-1h1v-1h1v-1h1v-1h1v-1h1v-1l7-7c4.6667-4.6667 7-7.3333 7-8 0-0.66666 1-2 3-4 2-1.3333 6.3333-7 13-17s12-19.667 16-29c4-8.6667 8-18 12-28 2.6667-10 4.6667-17.333 6-22 1.3333-5.3333 2-8.6667 2-10z"/>
   </g>
   <path d="m950 348l12-2-2 17c-2 12-4.3333 23.333-7 34-4 11.333-8.6667 22.333-14 33s-8.6667 17-10 19c-1.3333 2.6667-2 4-2 4h-1v1h-1v2h-1v1h-1v2h-1v1h-1v-6l1-5v-4h1v-5c0-3.3333 0.66669-6.6667 2-10s3.3333-10 6-20 4.6667-22.333 6-37c0.66669-15.333 5-23.667 13-25z" stroke="#7c0000"/>
   <path d="m606 478h1v1h1v1l1 2 1 1v4-1h-1v-1h-1v-1h-2v-1h-1v-1h-1v-1l-5-3c-2.6667-2-4-3.3333-4-4 0-0.66666-0.33331-1-1-1-0.66669-0.66666-4.6667-4.6667-12-12-6.6667-7.3333-14.333-16.667-23-28-8.6667-11.333-16-23.667-22-37s-10.667-24.667-14-34l-4-15 8-1c6 0 10.333 6 13 18 2.6667 12 6 22.667 10 32 4 10 9 20 15 30 6 9.3333 12.667 18.667 20 28 7.3333 8.6667 12.667 14.667 16 18l5 6z" stroke="#7a0000"/>
  </g>
  <path d="m922 437v12l-1 5v3l-1 4c-0.66669 2.6667-1 4.6667-1 6v2l-1 2-1 2v8l-1 2v1h-1v5l-6 12c-4 8.6667-7.3333 15.667-10 21-4 5.3333-9.3333 12-16 20-6.6667 7.3333-14 14.333-22 21-7.3333 5.3333-16 10.667-26 16-9.3333 5.3333-19.667 9.3333-31 12s-23 4.3333-35 5c-12.667 0.66669-22 0.33331-28-1-5.3333 0-12.667-1.3333-22-4-9.3333-2.6667-18.667-6.6667-28-12-10-5.3333-19-11-27-17s-15-13-21-21c-6.6667-6.6667-12.667-15-18-25l-9-15h1v-2h-1s-0.33331-0.33334-1-1l-1-1h-1v-1h1c0.66669 0 1-0.33334 1-1v-1l-4-15c-2.6667-10-4.6667-18-6-24v-24c0-9.3333 1.3333-19.333 4-30 2.6667-10 5.6667-19.333 9-28 3.3333-8 7.6667-16 13-24 5.3333-7.3333 10.333-14 15-20 5.3333-6 12-12 20-18 8-5.3333 17-10.667 27-16 10-5.3333 19.333-9 28-11 8-2 14.333-3.6667 19-5h27c12.667 0 24.333 1.3333 35 4s21.333 6.6667 32 12 20 11.333 28 18c7.3333 6.6667 14.333 13.333 21 20 5.3333 6.6667 10.667 14.667 16 24 5.3333 9.3333 10 19.333 14 30 4 11.333 6.3333 21.333 7 30 0.66669 8.6667 1.3333 15.333 2 20zm-164-147c10-0.66666 17.333-0.33334 22 1 4.6667 0 12.333 1.6667 23 5s20.667 7.3333 30 12c8.6667 4.6667 16.333 10 23 16 6.6667 6 13.333 12.667 20 20 6 8 11.667 16.667 17 26 4 9.3333 7.3333 19.333 10 30s4.3333 21.333 5 32c0.66669 10.667 0.33331 19-1 25-1.3333 6.6667-3.3333 14.667-6 24-2.6667 9.3333-6.6667 18.667-12 28-5.3333 9.3333-10 16.333-14 21-4 4.6667-10.333 10.333-19 17-8.6667 8-17.667 14-27 18-9.3333 5.3333-19 9.3333-29 12s-21.667 4-35 4c-12.667 0-23.667-0.66669-33-2-9.3333-2.6667-17.667-5.3333-25-8-8-2.6667-16.333-7-25-13-8.6667-6-15.667-11.667-21-17-6-5.3333-12-12-18-20-5.3333-8-10-16.333-14-25-4-9.3333-7.3333-18.333-10-27-1.3333-9.3333-2.3333-19-3-29-0.66669-10-0.33331-18.333 1-25 1.3333-6.6667 3.3333-14.333 6-23 2.6667-8.6667 6.3333-17.667 11-27 4.6667-8.6667 10-16.333 16-23 6-7.3333 12.667-13.667 20-19 7.3333-6.6667 16-12.333 26-17 10-4.6667 20.333-8.3333 31-11s21-4.3333 31-5z" fill="#303030" stroke="#303030"/>
  <g fill="#fff">
   <path d="m532 291v4h-3l-10-3c-6-1.3333-8.6667-7-8-17 0-10 4-13 12-9 7.3333 4 10.667 8.6667 10 14 0 5.3333-0.33331 9-1 11z" stroke="#7b0000"/>
   <path d="m950 313h-1v1h-1v1h-1v1l1 1 1 2v2h1l3-2c2.6667-1.3333 4.3333-2 5-2h1v-1h1v1h1v5c0 3.3333 0.33331 7 1 11 0 4-4.3333 6.6667-13 8l-12 2v-2c0-0.66666-0.66669-3-2-7 0-4-2-11.333-6-22-2.6667-10.667-6.6667-20.667-12-30-5.3333-9.3333-11.333-18.333-18-27-6.6667-9.3333-11.333-15-14-17-2-2.6667-4-5-6-7-2.6667-1.3333-8.6667-5.3333-18-12-10.667-6.6667-20.333-12-29-16-8.6667-4-18.333-7.3333-29-10s-23.333-4-38-4-24.667 0.33333-30 1c-6 0.66667-13.333 2.3333-22 5-8 2.6667-17.333 6.3333-28 11-10 4.6667-19.333 10.333-28 17-9.3333 6.6667-15.667 12-19 16-3.3333 4-5.3333 6-6 6-0.66669 0-2.3333 1.6667-5 5s-6.3333 8.6667-11 16-9.6667 16.333-15 27c-4 10-7.3333 20.667-10 32l-4 18h-1c-0.66669 0-4.6667-0.66666-12-2s-11-4.6667-11-10v-15l5 2c3.3333 0.66666 5.6667 1 7 1h2l1-1 1-1v-2h-1l-1-1-1-1h-1l-6-3c-3.3333-1.3333-3.6667-7.6667-1-19 3.3333-11.333 7.3333-22.667 12-34 4.6667-10.667 10.667-21 18-31 6.6667-10 14.333-19.333 23-28 9.3333-8.6667 19.333-16.667 30-24 10-7.3333 20.333-13 31-17 10.667-5.3333 21.667-9.3333 33-12 10.667-2.6667 26.333-4 47-4s37.333 2 50 6c12.667 2.6667 24 6.6667 34 12 10 4 20 9.6667 30 17s19.333 15 28 23c8.6667 8.6667 16.333 18 23 28 6.6667 10 12 20 16 30 5.3333 10 9.3333 20 12 30s3.6667 16.333 3 19c0 2-1 3.6667-3 5-2.6667 1.3333-4.3333 2-5 2z" stroke="#7e0000"/>
   <path d="m1007 339h-2l-6-1-5-1h-4l1-17c0.66669-11.333 4.6667-17.667 12-19 6.6667-2 9.3333 4 8 18-2 13.333-3.3333 20-4 20z" stroke="#7b0000"/>
  </g>
  <path d="m831 362c6-0.66666 10.667-0.33334 14 1 2.6667 1.3333 6 4.3333 10 9 4 4 7.3333 9 10 15 1.3333 5.3333 2.3333 10.667 3 16 0.66669 5.3333 0.33331 9.6667-1 13 0 3.3333-1.3333 7.3333-4 12-1.3333 4.6667-3 7.6667-5 9-2 2-3 3.3333-3 4 0 0.66666-2.3333 2.3333-7 5-4.6667 2-9.3333 3.3333-14 4-4.6667 0.66666-9 0-13-2s-7.6667-4.3333-11-7c-3.3333-4-6.3333-8.6667-9-14s-4-11.333-4-18v-15c1.3333-3.3333 3.6667-8.3333 7-15 3.3333-6 7-10.333 11-13 4.6667-2 10-3.3333 16-4zm-21 22l-1-6 1-1 1-1c0-0.66666 0.66669-1.6667 2-3 2-1.3333 4.6667-2 8-2 4 0 7 1 9 3s3 5 3 9-1 7-3 9-4.6667 3-8 3-6-0.66666-8-2c-2-2-3.3333-5-4-9zm27 12c4-0.66666 7 0 9 2s3.6667 5 5 9c1.3333 3.3333 2 6.6667 2 10-1.3333 4-3 7.3333-5 10s-4.6667 4-8 4-5.6667-0.33334-7-1-3-2.3333-5-5-3-6.6667-3-12 1.3333-9.3333 4-12c2-2.6667 4.6667-4.3333 8-5z" fill="#050505" stroke="#050505"/>
  <path d="m833 339c7.3333 0 13.667 1.3333 19 4 5.3333 2.6667 10.333 6.6667 15 12 4 5.3333 7.3333 11.333 10 18 2.6667 6 4.6667 13.333 6 22 1.3333 8 1.3333 15.333 0 22-1.3333 7.3333-4 14.333-8 21-2.6667 6.6667-4.6667 10.333-6 11-1.3333 1.3333-3 3.3333-5 6s-6 5.3333-12 8-11.667 4.3333-17 5c-5.3333 0.66666-10 0.33334-14-1s-8-3.3333-12-6-8-6.3333-12-11-7.3333-10.333-10-17c-2.6667-6.6667-4-16.667-4-30 0-12.667 1.3333-22.667 4-30 2.6667-6.6667 6.3333-12.667 11-18 4.6667-5.3333 9.6667-9.3333 15-12s12-4 20-4zm-2 23c6-0.66666 10.667-0.33334 14 1 2.6667 1.3333 6 4.3333 10 9 4 4 7.3333 9 10 15 1.3333 5.3333 2.3333 10.667 3 16 0.66669 5.3333 0.33331 9.6667-1 13 0 3.3333-1.3333 7.3333-4 12-1.3333 4.6667-3 7.6667-5 9-2 2-3 3.3333-3 4 0 0.66666-2.3333 2.3333-7 5-4.6667 2-9.3333 3.3333-14 4-4.6667 0.66666-9 0-13-2s-7.6667-4.3333-11-7c-3.3333-4-6.3333-8.6667-9-14s-4-11.333-4-18v-15c1.3333-3.3333 3.6667-8.3333 7-15 3.3333-6 7-10.333 11-13 4.6667-2 10-3.3333 16-4z" fill="#f9f9f9" stroke="#f9f9f9"/>
  <g fill="#f8f8f8" stroke="#f8f8f8">
   <path d="m837 396c4-0.66666 7 0 9 2s3.6667 5 5 9c1.3333 3.3333 2 6.6667 2 10-1.3333 4-3 7.3333-5 10s-4.6667 4-8 4-5.6667-0.33334-7-1-3-2.3333-5-5-3-6.6667-3-12 1.3333-9.3333 4-12c2-2.6667 4.6667-4.3333 8-5z"/>
   <path d="m696 392v1h-1c-0.66669 0-1.3333 0.66666-2 2h-6c-3.3333 0-6-0.66666-8-2-1.3333-1.3333-2.6667-3.3333-4-6l-2-4v-1l1-2 1-2 3-3c2-2.6667 5-4 9-4 3.3333 0 6 1.3333 8 4 2.6667 2 4 4.6667 4 8 0 4-0.66669 6.3333-2 7 0 0.66666-0.33331 1.3333-1 2z"/>
  </g>
 </g>
 <path d="m732 538h1-1" fill="none" stroke="#2e2e2e"/>
 <g stroke="#010101">
  <rect x="671" y="477" width="186" height="55"/>
  <rect x="649" y="495" width="33" height="22"/>
 </g>
 <g fill="#010000" stroke="#010000">
  <rect x="698" y="508" width="122" height="39"/>
  <rect x="940" y="541" width="0" height="1"/>
  <rect x="852" y="493" width="21" height="18"/>
 </g>
</svg>
